<?xml version="1.0" encoding="utf-8"?>
<svg viewBox="0 0 500 500" width="500" height="500" xmlns="http://www.w3.org/2000/svg">
  <rect width="500" height="500" style="fill: rgb(44, 105, 141);" rx="75.168" ry="75.168"/>
  <rect x="13.681" y="257.495" width="137.506" height="137.506" style="fill: rgb(39, 38, 67);" transform="matrix(0.707107, 0.707107, -0.707107, 0.707107, 314.142334, 69.278786)"/>
  <rect x="259.226" y="13.913" width="137.506" height="137.506" style="fill: rgb(39, 38, 67);" transform="matrix(0.707107, -0.707107, 0.707107, 0.707107, 67.890282, 315.201874)"/>
  <rect x="259.226" y="13.913" width="137.506" height="137.506" style="fill: rgb(39, 38, 67);" transform="matrix(0.707107, -0.707107, 0.707107, 0.707107, -148.629715, 315.201874)"/>
  <rect x="259.226" y="13.913" width="137.506" height="137.506" style="fill: rgb(39, 38, 67);" transform="matrix(0.707107, -0.707107, 0.707107, 0.707107, 67.890282, 531.721802)"/>
  <rect x="296.315" y="15.904" width="157.18" height="157.18" style="fill: none; stroke-width: 22px; stroke: rgb(39, 38, 67);" transform="matrix(0.707107, -0.707107, 0.707107, 0.707107, -81.915321, 448.280579)"/>
  <rect x="248.806" y="13.354" width="131.979" height="131.979" style="fill: none; stroke-width: 22px; stroke: rgb(39, 38, 67);" transform="matrix(0.707107, -0.707107, 0.707107, 0.707107, 90.135818, 416.48996)"/>
  <rect x="248.806" y="13.354" width="131.979" height="131.979" style="fill: none; stroke-width: 22px; stroke: rgb(39, 38, 67);" transform="matrix(0.707107, -0.707107, 0.707107, 0.707107, -147.53273, 416.48996)"/>
  <rect x="248.806" y="13.354" width="131.979" height="131.979" style="fill: none; stroke-width: 22px; stroke: rgb(39, 38, 67);" transform="matrix(0.707107, -0.707107, 0.707107, 0.707107, -27.937836, 297.655487)"/>
  <rect x="248.806" y="13.354" width="131.979" height="131.979" style="fill: none; stroke-width: 22px; stroke: rgb(39, 38, 67);" transform="matrix(0.707107, -0.707107, 0.707107, 0.707107, -27.937838, 535.324036)"/>
</svg>