<svg id="Camada_1" data-name="Camada 1" xmlns="http://www.w3.org/2000/svg" viewBox="0 0 1082 1080"><defs><style>.cls-1,.cls-4{fill:#1a1a1a;}.cls-2{fill:#f2f2f2;}.cls-3{fill:#c1272d;}.cls-4{stroke:#000;stroke-miterlimit:10;}</style></defs><title>favicon</title><rect class="cls-1" width="1082" height="1080" rx="143.64"/><rect class="cls-2" x="296.12" y="416.62" width="702.27" height="181.56" rx="90.78" transform="translate(-168.29 613.57) rotate(-45.51)"/><rect class="cls-2" x="607.87" y="37.43" width="181.56" height="461.86" rx="90.78" transform="translate(199.08 825.64) rotate(-69.14)"/><path class="cls-2" d="M279.27,778.82c-43.58,28.9-67.85,66.5-80.79,87a327.93,327.93,0,0,0-38.59,87.1C331.62,903.84,356.41,924.37,388,908.19c24.13-12.37,33.4-32.42,36.65-44.34,9.23-33.89,4.34-54.92-21.54-81.66C372.65,750.74,326.85,747.27,279.27,778.82Z"/><rect class="cls-3" x="555.98" y="222.31" width="181.56" height="702.27" rx="90.78" transform="translate(-216.48 617.59) rotate(-44.49)"/><rect class="cls-3" x="467.22" y="721.69" width="461.86" height="181.56" rx="90.78" transform="translate(-243.56 301.88) rotate(-20.86)"/><path class="cls-3" d="M278.77,302c-43.58-28.9-67.84-66.5-80.79-87a328.07,328.07,0,0,1-38.59-87.1C331.12,177,355.92,156.46,387.48,172.65,411.6,185,420.87,205.06,424.12,217c9.23,33.89,4.34,54.92-21.53,81.66C372.16,330.1,326.36,333.57,278.77,302Z"/><path class="cls-3" d="M445,677"/><path class="cls-4" d="M356.5,689.5"/></svg>