<?xml version="1.0" encoding="utf-8"?>
<svg viewBox="0 0 500 500" width="500" height="500" xmlns="http://www.w3.org/2000/svg">
  <path d="M 13.984 0 L 356.906 0 C 364.629 0 370.89 8.44 370.89 18.851 L 370.89 481.149 C 370.89 491.56 364.629 500 356.906 500 L 13.984 500 C 6.261 500 0 491.56 0 481.149 L 0 18.851 C 0 8.44 6.261 0 13.984 0 Z M 43.8 59.049 L 327.087 59.049 L 327.087 440.95 L 43.8 440.95 L 43.8 59.049 Z M 500 135.067 C 500 209.662 439.528 270.133 364.933 270.133 C 290.338 270.133 229.865 209.662 229.865 135.067 C 229.865 60.472 290.338 0 364.933 0 C 439.528 0 500 60.472 500 135.067 Z M 500 364.933 C 500 439.528 439.528 500 364.933 500 C 290.338 500 229.867 439.528 229.867 364.933 C 229.867 290.338 290.338 229.867 364.933 229.867 C 439.528 229.867 500 290.338 500 364.933 Z" style="stroke: rgb(0, 0, 0); stroke-width: 0px; fill: rgb(186, 232, 232);"/>
  <path d="M 35.718 31.703 L 93.473 31.703 L 93.473 462.166 L 35.718 462.166 L 35.718 31.703 Z M 228.799 162.268 C 228.799 234.375 170.342 292.83 98.236 292.83 C 26.124 292.83 35.718 233.435 35.718 161.325 C 35.718 89.217 26.124 31.703 98.236 31.703 C 170.342 31.703 228.799 90.159 228.799 162.268 Z M 35.291 233.335 L 81.909 199.241 L 276.852 462.166 L 202.649 462.166 L 35.291 233.335 Z" style="stroke: rgb(0, 0, 0); stroke-width: 0px; fill: rgb(39, 38, 67);"/>
</svg>