<?xml version="1.0" encoding="utf-8"?>
<svg viewBox="0 0 500 500" width="500" height="500" xmlns="http://www.w3.org/2000/svg">
  <rect width="500" height="500" style="fill: rgb(224, 240, 234);"/>
  <g style="" transform="matrix(2.476418, 0, 0, 2.476418, -380.508972, -438.850922)">
    <g transform="matrix(1.133597, 0, 0, 1.133597, -3.981365, -7.12802)" style="">
      <rect style="fill: rgb(87, 79, 125);" x="153.653" y="177.213" width="66.184" height="16.546"/>
      <rect x="132.305" y="217.36" width="58.803" height="16.546" style="fill: rgb(87, 79, 125);" transform="matrix(0, 1, -1, 0, 387.559021, 57.380726)"/>
      <rect style="fill: rgb(87, 79, 125);" transform="matrix(0, 1, -1, 0, 387.55899, 164.806213)" x="111.684" y="217.36" width="49.638" height="16.546"/>
      <rect style="fill: rgb(87, 79, 125);" x="186.745" y="210.305" width="37.34" height="16.546"/>
      <rect style="fill: rgb(87, 79, 125);" x="216.738" y="276.49" width="52.738" height="16.546"/>
      <rect style="fill: rgb(87, 79, 125);" x="167.144" y="309.582" width="52.693" height="16.546"/>
      <rect style="fill: rgb(87, 79, 125);" x="281.769" y="243.398" width="20.799" height="16.512"/>
      <rect style="fill: rgb(87, 79, 125);" transform="matrix(0, 1, 1, 0, 503.381989, 388.173981)" x="-111.684" y="-217.36" width="49.638" height="16.546"/>
      <rect style="fill: rgb(87, 79, 125);" transform="matrix(-1, 0, 0, 1, 0, 0)" x="-269.476" y="309.582" width="33.092" height="16.546"/>
      <rect style="fill: rgb(87, 79, 125);" transform="matrix(0, -1, 1, 0, 503.381989, 115.166992)" x="-111.684" y="-217.36" width="49.638" height="16.546"/>
      <rect style="fill: rgb(87, 79, 125);" transform="matrix(-1, 0, 0, -1, 0, 0)" x="-289.13" y="-193.758" width="52.747" height="16.546"/>
      <path d="M 236.339 210.305 L 293.297 248.758 L 285.769 259.91 L 280.244 259.91 L 227.081 224.018 L 236.339 210.305 Z" style="fill: rgb(87, 79, 125);"/>
      <rect style="fill: rgb(87, 79, 125);" transform="matrix(-1, 0, 0, 1, 0, 0)" x="-219.793" y="243.398" width="66.14" height="16.546"/>
      <rect style="fill: rgb(87, 79, 125);" transform="matrix(0, -1, -1, 0, 462.543457, 2.435239)" x="-309.997" y="242.75" width="54.933" height="16.502"/>
      <rect style="fill: rgb(87, 79, 125);" x="219.793" y="210.305" width="16.546" height="16.546"/>
    </g>
  </g>
</svg>