<?xml version="1.0" encoding="utf-8"?>
<svg viewBox="0 0 500 500" width="500" height="500" xmlns="http://www.w3.org/2000/svg" xmlns:bx="https://boxy-svg.com">
  <rect width="500" height="500" style="fill: rgb(87, 79, 125);"/>
  <path style="fill: rgb(60, 42, 77);" d="M 285.661 217.809 H 500 V 500 H 71.322 V 358.905 A 214.339 141.096 0 0 1 285.661 217.809 Z" bx:shape="rect 71.322 217.809 428.678 282.191 250 0 0 0 1@36bfdd91"/>
  <rect width="71.322" height="500" style="fill: rgb(80, 58, 101);"/>
  <rect width="71.322" height="500" style="fill: rgb(60, 42, 77);" x="428.678"/>
  <path d="M 167.881 402.542 C 150.555 402.542 137.248 395.407 127.962 381.138 C 118.675 366.869 114.032 343.371 114.032 310.643 L 114.032 185.28 C 114.032 172.143 114.967 160.224 116.835 149.523 C 118.704 138.821 121.903 129.563 126.433 121.749 C 130.962 113.935 137.163 107.933 145.034 103.743 C 152.904 99.552 162.841 97.458 174.845 97.458 C 187.302 97.458 197.24 99.581 204.657 103.828 C 212.075 108.074 217.709 114.104 221.559 121.918 C 225.41 129.733 227.958 139.075 229.204 149.947 C 230.449 160.819 231.072 172.823 231.072 185.959 L 231.072 209.061 L 197.098 209.061 L 197.098 170.161 C 197.098 155.666 195.654 144.936 192.767 137.972 C 189.878 131.007 183.905 127.525 174.845 127.525 C 165.219 127.525 158.538 131.658 154.801 139.924 C 151.064 148.191 149.196 162.801 149.196 183.751 L 149.196 309.454 C 149.196 332.33 150.752 348.694 153.866 358.546 C 156.981 368.398 163.634 373.325 173.826 373.325 C 183.565 373.325 190.162 368.37 193.616 358.461 C 197.07 348.552 198.797 331.989 198.797 308.775 L 198.797 269.874 L 174.506 269.874 L 174.506 242.695 L 231.072 242.695 L 231.072 399.654 L 212.556 399.654 L 207.8 376.552 C 204.63 384.932 199.618 391.359 192.767 395.832 C 185.915 400.305 177.62 402.542 167.881 402.542 Z M 287.614 399.654 C 289.653 372.476 292.852 346.854 297.212 322.789 C 301.571 298.724 306.526 276.301 312.075 255.521 C 317.624 234.739 323.06 215.8 328.383 198.699 C 334.611 177.749 340.047 161.271 344.69 149.268 C 349.333 137.264 351.711 130.865 351.824 130.072 L 266.72 130.072 L 266.72 100.685 L 385.968 100.685 L 385.968 125.996 C 385.628 129.506 382.656 138.651 377.05 153.429 C 371.445 168.208 365.357 187.261 358.789 210.59 C 354.033 227.124 349.361 245.385 344.775 265.373 C 340.188 285.361 336.168 306.651 332.714 329.244 C 329.26 351.836 326.74 375.307 325.155 399.654 L 287.614 399.654 Z" style="white-space: pre; fill: rgb(149, 173, 190); stroke: rgb(60, 42, 77); stroke-miterlimit: 50; stroke-linecap: round; stroke-width: 0px;"/>
</svg>