<?xml version="1.0" encoding="utf-8"?>
<svg viewBox="0 0 500 500" width="500" height="500" xmlns="http://www.w3.org/2000/svg">
  <text style="fill: rgb(39, 38, 67); font-family: Arial, sans-serif; font-size: 513.7px; stroke: rgba(0, 0, 0, 0); white-space: pre;" dx="0 -262.365" y="427.897" x="24.373">BR</text>
  <rect x="108.752" y="102.524" width="38.158" height="282.692" style="stroke-width: 0px; stroke: rgb(255, 0, 0); fill: rgb(44, 105, 141);"/>
  <path d="M 276.377 159.448 C 276.377 190.594 253.64 215.563 219.983 215.842 C 210.248 215.923 193.061 215.771 193.061 215.644 C 193.061 202.337 192.961 179.699 192.961 158.289 C 192.961 134.848 192.474 117.455 192.474 103.153 C 192.474 101.807 212.278 103.494 219.983 103.494 C 251.129 103.494 276.377 128.302 276.377 159.448 Z" style="stroke: rgba(0, 0, 0, 0); stroke-width: 0px; fill: rgb(186, 232, 232);"/>
  <path d="M 292.518 320.759 C 292.518 356.165 265.501 384.547 225.51 384.866 C 213.942 384.956 193.519 384.783 193.519 384.639 C 193.519 369.513 193.401 343.779 193.401 319.441 C 193.401 292.796 192.823 273.023 192.823 256.766 C 192.823 255.237 216.354 257.154 225.51 257.154 C 262.517 257.154 292.518 285.354 292.518 320.759 Z" style="stroke: rgba(0, 0, 0, 0); stroke-width: 0px; fill: rgb(186, 232, 232);"/>
  <path d="M 389.109 163.218 C 389.109 198.624 363.057 218.485 331.661 221.452 C 319.656 222.587 286.762 222.342 286.762 222.342 C 286.762 222.342 300.046 210.88 309.168 196.276 C 316.993 183.746 322.443 168.092 321.828 156.871 C 320.367 130.226 315.166 116.974 304.212 100.96 C 304.212 100.96 324.049 97.989 348.35 103.954 C 364.091 107.818 389.109 127.813 389.109 163.218 Z" style="stroke: rgba(0, 0, 0, 0); stroke-width: 0px; fill: rgb(227, 246, 245);"/>
</svg>