<?xml version="1.0" encoding="utf-8"?>
<svg viewBox="32.988 196.526 474.9 293.025" width="474.9" height="293.025" xmlns="http://www.w3.org/2000/svg">
  <g style="" transform="matrix(0.82703, 0.206202, -0.206202, 0.82703, 105.913071, 12.452793)">
    <path d="M 59.74 269.027 C 56.583 269.027 54.041 267.781 52.115 265.289 C 50.188 262.797 49.225 258.751 49.225 253.152 L 49.225 230.366 C 49.225 228.023 49.449 225.928 49.896 224.081 C 50.343 222.234 51.037 220.671 51.98 219.39 C 52.923 218.109 54.15 217.136 55.659 216.471 C 57.168 215.806 58.985 215.473 61.11 215.473 C 63.413 215.473 65.29 215.816 66.739 216.501 C 68.188 217.186 69.305 218.179 70.09 219.48 C 70.874 220.78 71.415 222.373 71.713 224.26 C 72.011 226.147 72.16 228.281 72.16 230.664 L 72.16 234.387 L 64.714 234.387 L 64.714 228.907 C 64.714 226.544 64.471 224.866 63.984 223.873 C 63.497 222.88 62.579 222.384 61.229 222.384 C 59.74 222.384 58.707 222.965 58.131 224.126 C 57.555 225.287 57.267 227.347 57.267 230.306 L 57.267 253.032 C 57.267 256.329 57.51 258.687 57.997 260.106 C 58.484 261.526 59.501 262.236 61.05 262.236 C 62.559 262.236 63.627 261.506 64.252 260.047 C 64.877 258.588 65.19 256.15 65.19 252.735 L 65.19 245.676 L 61.169 245.676 L 61.169 239.867 L 72.16 239.867 L 72.16 268.491 L 68.586 268.491 L 67.365 263.338 C 66.928 265.145 65.999 266.545 64.58 267.538 C 63.16 268.531 61.547 269.027 59.74 269.027 Z M 89.219 269.087 C 87.035 269.087 85.213 268.744 83.753 268.059 C 82.294 267.374 81.142 266.372 80.298 265.051 C 79.454 263.73 78.853 262.122 78.496 260.226 C 78.139 258.329 77.96 256.17 77.96 253.747 L 77.96 249.071 L 85.526 249.071 L 85.526 254.343 C 85.526 257.163 85.764 259.188 86.24 260.419 C 86.717 261.65 87.66 262.266 89.07 262.266 C 90.023 262.266 90.743 262.043 91.229 261.596 C 91.716 261.149 92.043 260.434 92.212 259.451 C 92.381 258.468 92.466 257.183 92.466 255.594 C 92.466 253.628 92.054 251.831 91.229 250.203 C 90.405 248.575 89.159 246.887 87.491 245.139 L 83.619 241.148 C 82.547 240.036 81.579 238.855 80.715 237.604 C 79.852 236.353 79.167 234.958 78.66 233.419 C 78.154 231.88 77.901 230.158 77.901 228.251 C 77.901 225.491 78.238 223.158 78.913 221.252 C 79.588 219.345 80.73 217.901 82.339 216.918 C 83.947 215.935 86.151 215.444 88.951 215.444 C 91.056 215.444 92.788 215.767 94.148 216.412 C 95.509 217.057 96.571 218 97.335 219.241 C 98.1 220.482 98.641 221.992 98.959 223.769 C 99.276 225.546 99.435 227.576 99.435 229.86 L 99.435 233.106 L 92.078 233.106 L 92.078 229.353 C 92.078 227.764 91.994 226.444 91.825 225.392 C 91.656 224.339 91.344 223.55 90.887 223.024 C 90.43 222.498 89.765 222.235 88.891 222.235 C 88.057 222.235 87.382 222.419 86.866 222.786 C 86.35 223.153 85.978 223.719 85.749 224.483 C 85.52 225.248 85.406 226.236 85.406 227.447 C 85.406 228.539 85.545 229.482 85.823 230.277 C 86.101 231.071 86.528 231.835 87.104 232.57 C 87.68 233.305 88.395 234.129 89.249 235.042 L 93.568 239.719 C 95.633 241.942 97.241 244.255 98.393 246.658 C 99.544 249.061 100.12 251.741 100.12 254.7 C 100.12 257.838 99.783 260.474 99.108 262.608 C 98.433 264.743 97.301 266.356 95.712 267.449 C 94.123 268.541 91.959 269.087 89.219 269.087 Z M 105.717 268.491 L 105.717 216.069 L 123.29 216.069 L 123.29 222.949 L 113.699 222.949 L 113.699 238.199 L 122.813 238.199 L 122.813 244.931 L 113.699 244.931 L 113.699 261.611 L 123.647 261.611 L 123.647 268.491 L 105.717 268.491 Z M 134.887 268.491 L 126.755 216.069 L 134.35 216.069 L 137.776 239.748 L 139.89 256.428 L 140.099 256.428 L 141.916 239.748 L 144.775 216.069 L 152.222 216.069 L 144.745 268.491 L 134.887 268.491 Z M 157.251 268.491 L 157.251 216.069 L 174.824 216.069 L 174.824 222.949 L 165.233 222.949 L 165.233 238.199 L 174.348 238.199 L 174.348 244.931 L 165.233 244.931 L 165.233 261.611 L 175.182 261.611 L 175.182 268.491 L 157.251 268.491 Z M 181.076 268.491 L 181.076 216.069 L 187.33 216.069 L 198.44 247.522 L 197.874 233.225 L 197.874 216.069 L 205.053 216.069 L 205.053 268.491 L 199.393 268.491 L 187.986 235.936 L 188.433 249.697 L 188.433 268.491 L 181.076 268.491 Z" style="white-space: pre; fill: rgb(87, 79, 125);"/>
    <path d="M 367.706 269.027 C 364.549 269.027 362.007 267.781 360.081 265.289 C 358.154 262.797 357.191 258.751 357.191 253.152 L 357.191 230.366 C 357.191 228.023 357.415 225.928 357.862 224.081 C 358.309 222.234 359.003 220.671 359.946 219.39 C 360.889 218.109 362.116 217.136 363.625 216.471 C 365.134 215.806 366.951 215.473 369.076 215.473 C 371.379 215.473 373.256 215.816 374.705 216.501 C 376.154 217.186 377.271 218.179 378.056 219.48 C 378.84 220.78 379.381 222.373 379.679 224.26 C 379.977 226.147 380.126 228.281 380.126 230.664 L 380.126 234.387 L 372.68 234.387 L 372.68 228.907 C 372.68 226.544 372.437 224.866 371.95 223.873 C 371.463 222.88 370.545 222.384 369.195 222.384 C 367.706 222.384 366.673 222.965 366.097 224.126 C 365.521 225.287 365.233 227.347 365.233 230.306 L 365.233 253.032 C 365.233 256.329 365.476 258.687 365.963 260.106 C 366.45 261.526 367.467 262.236 369.016 262.236 C 370.525 262.236 371.593 261.506 372.218 260.047 C 372.843 258.588 373.156 256.15 373.156 252.735 L 373.156 245.676 L 369.135 245.676 L 369.135 239.867 L 380.126 239.867 L 380.126 268.491 L 376.552 268.491 L 375.331 263.338 C 374.894 265.145 373.965 266.545 372.546 267.538 C 371.126 268.531 369.513 269.027 367.706 269.027 Z M 397.185 269.087 C 395.001 269.087 393.179 268.744 391.719 268.059 C 390.26 267.374 389.108 266.372 388.264 265.051 C 387.42 263.73 386.819 262.122 386.462 260.226 C 386.105 258.329 385.926 256.17 385.926 253.747 L 385.926 249.071 L 393.492 249.071 L 393.492 254.343 C 393.492 257.163 393.73 259.188 394.206 260.419 C 394.683 261.65 395.626 262.266 397.036 262.266 C 397.989 262.266 398.709 262.043 399.195 261.596 C 399.682 261.149 400.009 260.434 400.178 259.451 C 400.347 258.468 400.432 257.183 400.432 255.594 C 400.432 253.628 400.02 251.831 399.195 250.203 C 398.371 248.575 397.125 246.887 395.457 245.139 L 391.585 241.148 C 390.513 240.036 389.545 238.855 388.681 237.604 C 387.818 236.353 387.133 234.958 386.626 233.419 C 386.12 231.88 385.867 230.158 385.867 228.251 C 385.867 225.491 386.204 223.158 386.879 221.252 C 387.554 219.345 388.696 217.901 390.305 216.918 C 391.913 215.935 394.117 215.444 396.917 215.444 C 399.022 215.444 400.754 215.767 402.114 216.412 C 403.475 217.057 404.537 218 405.301 219.241 C 406.066 220.482 406.607 221.992 406.925 223.769 C 407.242 225.546 407.401 227.576 407.401 229.86 L 407.401 233.106 L 400.044 233.106 L 400.044 229.353 C 400.044 227.764 399.96 226.444 399.791 225.392 C 399.622 224.339 399.31 223.55 398.853 223.024 C 398.396 222.498 397.731 222.235 396.857 222.235 C 396.023 222.235 395.348 222.419 394.832 222.786 C 394.316 223.153 393.944 223.719 393.715 224.483 C 393.486 225.248 393.372 226.236 393.372 227.447 C 393.372 228.539 393.511 229.482 393.789 230.277 C 394.067 231.071 394.494 231.835 395.07 232.57 C 395.646 233.305 396.361 234.129 397.215 235.042 L 401.534 239.719 C 403.599 241.942 405.207 244.255 406.359 246.658 C 407.51 249.061 408.086 251.741 408.086 254.7 C 408.086 257.838 407.749 260.474 407.074 262.608 C 406.399 264.743 405.267 266.356 403.678 267.449 C 402.089 268.541 399.925 269.087 397.185 269.087 Z M 413.683 268.491 L 413.683 216.069 L 431.256 216.069 L 431.256 222.949 L 421.665 222.949 L 421.665 238.199 L 430.779 238.199 L 430.779 244.931 L 421.665 244.931 L 421.665 261.611 L 431.613 261.611 L 431.613 268.491 L 413.683 268.491 Z M 442.853 268.491 L 434.721 216.069 L 442.316 216.069 L 445.742 239.748 L 447.856 256.428 L 448.065 256.428 L 449.882 239.748 L 452.741 216.069 L 460.188 216.069 L 452.711 268.491 L 442.853 268.491 Z M 465.217 268.491 L 465.217 216.069 L 482.79 216.069 L 482.79 222.949 L 473.199 222.949 L 473.199 238.199 L 482.314 238.199 L 482.314 244.931 L 473.199 244.931 L 473.199 261.611 L 483.148 261.611 L 483.148 268.491 L 465.217 268.491 Z M 489.042 268.491 L 489.042 216.069 L 495.296 216.069 L 506.406 247.522 L 505.84 233.225 L 505.84 216.069 L 513.019 216.069 L 513.019 268.491 L 507.359 268.491 L 495.952 235.936 L 496.399 249.697 L 496.399 268.491 L 489.042 268.491 Z" style="white-space: pre; fill: none; stroke: rgb(87, 79, 125); stroke-width: 2px;"/>
    <path d="M 59.74 443.766 C 56.583 443.766 54.041 442.52 52.115 440.028 C 50.188 437.536 49.225 433.49 49.225 427.891 L 49.225 405.105 C 49.225 402.762 49.449 400.667 49.896 398.82 C 50.343 396.973 51.037 395.41 51.98 394.129 C 52.923 392.848 54.15 391.875 55.659 391.21 C 57.168 390.545 58.985 390.212 61.11 390.212 C 63.413 390.212 65.29 390.555 66.739 391.24 C 68.188 391.925 69.305 392.918 70.09 394.219 C 70.874 395.519 71.415 397.112 71.713 398.999 C 72.011 400.886 72.16 403.02 72.16 405.403 L 72.16 409.126 L 64.714 409.126 L 64.714 403.646 C 64.714 401.283 64.471 399.605 63.984 398.612 C 63.497 397.619 62.579 397.123 61.229 397.123 C 59.74 397.123 58.707 397.704 58.131 398.865 C 57.555 400.026 57.267 402.086 57.267 405.045 L 57.267 427.771 C 57.267 431.068 57.51 433.426 57.997 434.845 C 58.484 436.265 59.501 436.975 61.05 436.975 C 62.559 436.975 63.627 436.245 64.252 434.786 C 64.877 433.327 65.19 430.889 65.19 427.474 L 65.19 420.415 L 61.169 420.415 L 61.169 414.606 L 72.16 414.606 L 72.16 443.23 L 68.586 443.23 L 67.365 438.077 C 66.928 439.884 65.999 441.284 64.58 442.277 C 63.16 443.27 61.547 443.766 59.74 443.766 Z M 89.219 443.826 C 87.035 443.826 85.213 443.483 83.753 442.798 C 82.294 442.113 81.142 441.111 80.298 439.79 C 79.454 438.469 78.853 436.861 78.496 434.965 C 78.139 433.068 77.96 430.909 77.96 428.486 L 77.96 423.81 L 85.526 423.81 L 85.526 429.082 C 85.526 431.902 85.764 433.927 86.24 435.158 C 86.717 436.389 87.66 437.005 89.07 437.005 C 90.023 437.005 90.743 436.782 91.229 436.335 C 91.716 435.888 92.043 435.173 92.212 434.19 C 92.381 433.207 92.466 431.922 92.466 430.333 C 92.466 428.367 92.054 426.57 91.229 424.942 C 90.405 423.314 89.159 421.626 87.491 419.878 L 83.619 415.887 C 82.547 414.775 81.579 413.594 80.715 412.343 C 79.852 411.092 79.167 409.697 78.66 408.158 C 78.154 406.619 77.901 404.897 77.901 402.99 C 77.901 400.23 78.238 397.897 78.913 395.991 C 79.588 394.084 80.73 392.64 82.339 391.657 C 83.947 390.674 86.151 390.183 88.951 390.183 C 91.056 390.183 92.788 390.506 94.148 391.151 C 95.509 391.796 96.571 392.739 97.335 393.98 C 98.1 395.221 98.641 396.731 98.959 398.508 C 99.276 400.285 99.435 402.315 99.435 404.599 L 99.435 407.845 L 92.078 407.845 L 92.078 404.092 C 92.078 402.503 91.994 401.183 91.825 400.131 C 91.656 399.078 91.344 398.289 90.887 397.763 C 90.43 397.237 89.765 396.974 88.891 396.974 C 88.057 396.974 87.382 397.158 86.866 397.525 C 86.35 397.892 85.978 398.458 85.749 399.222 C 85.52 399.987 85.406 400.975 85.406 402.186 C 85.406 403.278 85.545 404.221 85.823 405.016 C 86.101 405.81 86.528 406.574 87.104 407.309 C 87.68 408.044 88.395 408.868 89.249 409.781 L 93.568 414.458 C 95.633 416.681 97.241 418.994 98.393 421.397 C 99.544 423.8 100.12 426.48 100.12 429.439 C 100.12 432.577 99.783 435.213 99.108 437.347 C 98.433 439.482 97.301 441.095 95.712 442.188 C 94.123 443.28 91.959 443.826 89.219 443.826 Z M 105.717 443.23 L 105.717 390.808 L 123.29 390.808 L 123.29 397.688 L 113.699 397.688 L 113.699 412.938 L 122.813 412.938 L 122.813 419.67 L 113.699 419.67 L 113.699 436.35 L 123.647 436.35 L 123.647 443.23 L 105.717 443.23 Z M 134.887 443.23 L 126.755 390.808 L 134.35 390.808 L 137.776 414.487 L 139.89 431.167 L 140.099 431.167 L 141.916 414.487 L 144.775 390.808 L 152.222 390.808 L 144.745 443.23 L 134.887 443.23 Z M 157.251 443.23 L 157.251 390.808 L 174.824 390.808 L 174.824 397.688 L 165.233 397.688 L 165.233 412.938 L 174.348 412.938 L 174.348 419.67 L 165.233 419.67 L 165.233 436.35 L 175.182 436.35 L 175.182 443.23 L 157.251 443.23 Z M 181.076 443.23 L 181.076 390.808 L 187.33 390.808 L 198.44 422.261 L 197.874 407.964 L 197.874 390.808 L 205.053 390.808 L 205.053 443.23 L 199.393 443.23 L 187.986 410.675 L 188.433 424.436 L 188.433 443.23 L 181.076 443.23 Z" style="white-space: pre; fill: none; stroke: rgb(87, 79, 125); stroke-width: 2px;"/>
    <path d="M 367.706 443.766 C 364.549 443.766 362.007 442.52 360.081 440.028 C 358.154 437.536 357.191 433.49 357.191 427.891 L 357.191 405.105 C 357.191 402.762 357.415 400.667 357.862 398.82 C 358.309 396.973 359.003 395.41 359.946 394.129 C 360.889 392.848 362.116 391.875 363.625 391.21 C 365.134 390.545 366.951 390.212 369.076 390.212 C 371.379 390.212 373.256 390.555 374.705 391.24 C 376.154 391.925 377.271 392.918 378.056 394.219 C 378.84 395.519 379.381 397.112 379.679 398.999 C 379.977 400.886 380.126 403.02 380.126 405.403 L 380.126 409.126 L 372.68 409.126 L 372.68 403.646 C 372.68 401.283 372.437 399.605 371.95 398.612 C 371.463 397.619 370.545 397.123 369.195 397.123 C 367.706 397.123 366.673 397.704 366.097 398.865 C 365.521 400.026 365.233 402.086 365.233 405.045 L 365.233 427.771 C 365.233 431.068 365.476 433.426 365.963 434.845 C 366.45 436.265 367.467 436.975 369.016 436.975 C 370.525 436.975 371.593 436.245 372.218 434.786 C 372.843 433.327 373.156 430.889 373.156 427.474 L 373.156 420.415 L 369.135 420.415 L 369.135 414.606 L 380.126 414.606 L 380.126 443.23 L 376.552 443.23 L 375.331 438.077 C 374.894 439.884 373.965 441.284 372.546 442.277 C 371.126 443.27 369.513 443.766 367.706 443.766 Z M 397.185 443.826 C 395.001 443.826 393.179 443.483 391.719 442.798 C 390.26 442.113 389.108 441.111 388.264 439.79 C 387.42 438.469 386.819 436.861 386.462 434.965 C 386.105 433.068 385.926 430.909 385.926 428.486 L 385.926 423.81 L 393.492 423.81 L 393.492 429.082 C 393.492 431.902 393.73 433.927 394.206 435.158 C 394.683 436.389 395.626 437.005 397.036 437.005 C 397.989 437.005 398.709 436.782 399.195 436.335 C 399.682 435.888 400.009 435.173 400.178 434.19 C 400.347 433.207 400.432 431.922 400.432 430.333 C 400.432 428.367 400.02 426.57 399.195 424.942 C 398.371 423.314 397.125 421.626 395.457 419.878 L 391.585 415.887 C 390.513 414.775 389.545 413.594 388.681 412.343 C 387.818 411.092 387.133 409.697 386.626 408.158 C 386.12 406.619 385.867 404.897 385.867 402.99 C 385.867 400.23 386.204 397.897 386.879 395.991 C 387.554 394.084 388.696 392.64 390.305 391.657 C 391.913 390.674 394.117 390.183 396.917 390.183 C 399.022 390.183 400.754 390.506 402.114 391.151 C 403.475 391.796 404.537 392.739 405.301 393.98 C 406.066 395.221 406.607 396.731 406.925 398.508 C 407.242 400.285 407.401 402.315 407.401 404.599 L 407.401 407.845 L 400.044 407.845 L 400.044 404.092 C 400.044 402.503 399.96 401.183 399.791 400.131 C 399.622 399.078 399.31 398.289 398.853 397.763 C 398.396 397.237 397.731 396.974 396.857 396.974 C 396.023 396.974 395.348 397.158 394.832 397.525 C 394.316 397.892 393.944 398.458 393.715 399.222 C 393.486 399.987 393.372 400.975 393.372 402.186 C 393.372 403.278 393.511 404.221 393.789 405.016 C 394.067 405.81 394.494 406.574 395.07 407.309 C 395.646 408.044 396.361 408.868 397.215 409.781 L 401.534 414.458 C 403.599 416.681 405.207 418.994 406.359 421.397 C 407.51 423.8 408.086 426.48 408.086 429.439 C 408.086 432.577 407.749 435.213 407.074 437.347 C 406.399 439.482 405.267 441.095 403.678 442.188 C 402.089 443.28 399.925 443.826 397.185 443.826 Z M 413.683 443.23 L 413.683 390.808 L 431.256 390.808 L 431.256 397.688 L 421.665 397.688 L 421.665 412.938 L 430.779 412.938 L 430.779 419.67 L 421.665 419.67 L 421.665 436.35 L 431.613 436.35 L 431.613 443.23 L 413.683 443.23 Z M 442.853 443.23 L 434.721 390.808 L 442.316 390.808 L 445.742 414.487 L 447.856 431.167 L 448.065 431.167 L 449.882 414.487 L 452.741 390.808 L 460.188 390.808 L 452.711 443.23 L 442.853 443.23 Z M 465.217 443.23 L 465.217 390.808 L 482.79 390.808 L 482.79 397.688 L 473.199 397.688 L 473.199 412.938 L 482.314 412.938 L 482.314 419.67 L 473.199 419.67 L 473.199 436.35 L 483.148 436.35 L 483.148 443.23 L 465.217 443.23 Z M 489.042 443.23 L 489.042 390.808 L 495.296 390.808 L 506.406 422.261 L 505.84 407.964 L 505.84 390.808 L 513.019 390.808 L 513.019 443.23 L 507.359 443.23 L 495.952 410.675 L 496.399 424.436 L 496.399 443.23 L 489.042 443.23 Z" style="white-space: pre; fill: rgb(87, 79, 125);"/>
  </g>
</svg>